# xmcd CD database file
#
# Track frame offsets:
#	150
#	20948
#	39082
#	56401
#	73646
#	92598
#	111620
#	129940
#	151191
#	164004
#	180797
#	202801
#	217873
#	235426
#	254033
#	271873
#	290633
#	310696
#	325755
#	340814
#
# Disc length: 4798 seconds
#
# Revision: 1
# Processed by: cddbd v1.5.2PL0 Copyright (c) Steve Scherf et al.
# Submitted via: CDex 1.51
#
DISCID=1a12bc14
DTITLE=Various Artist - ZM-PCP-13
DYEAR=1900
DGENRE=Blues
TTITLE0=Labrinth Ft Emile Sande - Beneath Your Beautiful
TTITLE1=Train - Bruises 
TTITLE2=Emeli Sande - Clown
TTITLE3=Ke$ha - Die Young
TTITLE4=Little Mix - DNA
TTITLE5=Rolling Stones The - Doom And Gloom
TTITLE6=Alicia Keys - Girl On Fire
TTITLE7=The Justice Collective - He Ain't Heavy He My Brother
TTITLE8=Lumineers The - Ho Hey
TTITLE9=James Arthur - Impossible
TTITLE10=Paloma Faith - Just Be
TTITLE11=One Direction - Kiss You
TTITLE12=One Direction - Little Thing
TTITLE13=Bruno Mars - Locked Out Of Heaven
TTITLE14=Maroon 5 - One More Night
TTITLE15=Rihanna Ft Mikky Ekko - Stay
TTITLE16=Gabrielle Aplin - The Power Of Love
TTITLE17=Olly Murs Ft Flo Rida - TroubleMaker (duet version)
TTITLE18=Olly Murs Ft Flo Rida - Troublemaker (with rapper)
TTITLE19=Pink - Try
EXTD=
EXTT0=
EXTT1=
EXTT2=
EXTT3=
EXTT4=
EXTT5=
EXTT6=
EXTT7=
EXTT8=
EXTT9=
EXTT10=
EXTT11=
EXTT12=
EXTT13=
EXTT14=
EXTT15=
EXTT16=
EXTT17=
EXTT18=
EXTT19=
PLAYORDER=
